<?xml version="1.0" encoding="UTF-8"?>
<svg id="Layer_2" xmlns="http://www.w3.org/2000/svg" xmlns:xlink="http://www.w3.org/1999/xlink" viewBox="0 0 123.69 130.87">
  <defs>
    <style>
      .cls-1 {
        fill: url(#linear-gradient-2);
      }

      .cls-2 {
        fill: url(#linear-gradient-4);
      }

      .cls-3 {
        fill: url(#radial-gradient);
      }

      .cls-4 {
        fill: url(#linear-gradient-3);
      }

      .cls-5 {
        fill: url(#linear-gradient-5);
      }

      .cls-6 {
        fill: url(#linear-gradient-6);
      }

      .cls-7 {
        fill: url(#linear-gradient);
      }
    </style>
    <radialGradient id="radial-gradient" cx="61.85" cy="65.44" fx="61.85" fy="65.44" r="48.53" gradientUnits="userSpaceOnUse">
      <stop offset="0" stop-color="#101319"/>
      <stop offset=".55" stop-color="#0c0d11"/>
      <stop offset="1" stop-color="#070608"/>
    </radialGradient>
    <linearGradient id="linear-gradient" x1="29.12" y1="11.14" x2="29.12" y2="26.4" gradientUnits="userSpaceOnUse">
      <stop offset="0" stop-color="#ece7d9"/>
      <stop offset=".16" stop-color="#e4e1d5"/>
      <stop offset=".4" stop-color="#d1d1cd"/>
      <stop offset=".68" stop-color="#b0b7bf"/>
      <stop offset=".99" stop-color="#8493ac"/>
      <stop offset="1" stop-color="#8392ac"/>
    </linearGradient>
    <linearGradient id="linear-gradient-2" x1="94.5" y1="11.12" x2="94.5" y2="26.36" xlink:href="#linear-gradient"/>
    <linearGradient id="linear-gradient-3" x1="61.82" y1="0" x2="61.82" y2="17.02" xlink:href="#linear-gradient"/>
    <linearGradient id="linear-gradient-4" x1="29.14" y1="119.74" x2="29.14" y2="104.49" xlink:href="#linear-gradient"/>
    <linearGradient id="linear-gradient-5" x1="94.49" y1="119.72" x2="94.49" y2="104.47" xlink:href="#linear-gradient"/>
    <linearGradient id="linear-gradient-6" x1="61.82" y1="130.87" x2="61.82" y2="113.86" xlink:href="#linear-gradient"/>
  </defs>
  <g id="eye">
    <g id="eyeball_b">
      <path class="cls-3" d="M62.27,35.69c11.13.1,21.96,3.26,32.27,8.39,10.39,5.17,19.67,11.95,28.06,19.95,1.45,1.38,1.45,1.44.05,2.76-11.81,11.11-24.96,20.04-40.54,25.04-7.5,2.41-15.18,3.69-23.06,3.28-10.06-.52-19.55-3.34-28.6-7.67-10.84-5.19-20.46-12.15-29.18-20.39-1.68-1.59-1.69-1.64-.05-3.18,12.02-11.25,25.43-20.23,41.32-25.15,5.97-1.85,13.23-3.03,19.73-3.03Z"/>
      <path class="cls-7" d="M35.51,22.74c0,1.61-.87,2.87-2.27,3.41-1.35.52-3.02.24-3.91-.96-2.11-2.85-4.17-5.75-6.09-8.73-1.05-1.64-.44-3.69,1.1-4.69,1.55-1.02,3.64-.82,4.79.73,2.06,2.77,3.97,5.65,5.92,8.5.37.54.52,1.17.46,1.75Z"/>
      <path class="cls-1" d="M91.7,26.35c-2.66.02-4.55-2.79-3.17-5.09,1.84-3.08,3.95-6.01,6.12-8.88,1.16-1.53,3.29-1.61,4.8-.52,1.44,1.04,1.99,3.01.96,4.61-1.92,2.98-4,5.86-6.09,8.73-.6.82-1.57,1.17-2.62,1.15Z"/>
      <path class="cls-4" d="M65.46,8.41c0,1.58.04,3.16,0,4.74-.07,2.26-1.67,3.9-3.68,3.86-1.97-.04-3.52-1.63-3.56-3.82-.06-3.16-.06-6.32,0-9.48C58.25,1.49,59.76,0,61.81,0c2.06,0,3.55,1.46,3.64,3.67.06,1.58.01,3.16.01,4.74Z"/>
      <path class="cls-2" d="M35.51,108.09c.07.85-.31,1.64-.82,2.39-1.71,2.47-3.41,4.95-5.15,7.41-1.38,1.95-3.51,2.4-5.28,1.17-1.66-1.15-2-3.32-.7-5.25,1.76-2.62,3.59-5.19,5.44-7.75,1.03-1.42,2.69-1.9,4.2-1.35,1.4.51,2.29,1.78,2.32,3.38Z"/>
      <path class="cls-5" d="M100.9,116.16c-.03,1.54-.9,2.79-2.3,3.31-1.47.55-3.15.19-4.12-1.14-2.03-2.79-4-5.63-5.87-8.53-1.01-1.56-.49-3.54.97-4.62,1.44-1.06,3.56-1,4.7.44,2.27,2.85,4.33,5.87,6.27,8.96.29.47.36,1.02.36,1.57Z"/>
      <path class="cls-6" d="M65.46,122.45c0,1.53.03,3.06,0,4.59-.07,2.32-1.52,3.83-3.64,3.83-2.1,0-3.58-1.52-3.61-3.85-.05-3.06-.04-6.13,0-9.19.03-2.3,1.54-3.93,3.56-3.98,2.06-.05,3.64,1.64,3.69,4,.04,1.53,0,3.06,0,4.59Z"/>
    </g>
  </g>
</svg>