<?xml version="1.0" encoding="UTF-8"?>
<svg id="Layer_2" xmlns="http://www.w3.org/2000/svg" viewBox="0 0 49.74 61.02">
  <defs>
    <style>
      .cls-1 {
        fill: #231f20;
      }
    </style>
  </defs>
  <g id="Layer_2-2" data-name="Layer_2">
    <g id="bishop_icon">
      <path class="cls-1" d="M25.11,48.25s-20.66,1.6-20.66-15.45,15.96-19.66,15.96-19.66c0,0,1.02.13,1.02-.57s-5.55.45-5.55-5.94C15.87.78,23.64.08,24.93,0c.12,0,.23,0,.36,0,1.23.08,8.4.79,8.4,6.57,0,6.32-5.81,5.94-5.81,5.94,0,0,.83.64,1.28.64s3.89.89,5.81,2.81c0,0,.32-.06.38,1.98.05,1.74-9.47,9.5-12.3,11.76-.72.57-1.16,1.45-1.08,2.37.05.54.26,1.1.81,1.51,1.47,1.09,3.77.64,4.02.26.21-.32,8.16-8.2,10.77-10.78.8-.79,1.86-1.28,2.98-1.29.01,0,.03,0,.04,0,1.47,0,4.6,4.79,4.6,7.79s2.96,18.7-20.06,18.7Z"/>
      <path class="cls-1" d="M24.87,52.08H1.98c-1.09,0-1.98.89-1.98,1.98v4.98c0,1.09.89,1.98,1.98,1.98h22.89v-8.94Z"/>
      <path class="cls-1" d="M24.87,52.08h22.89c1.09,0,1.98.89,1.98,1.98v4.98c0,1.09-.89,1.98-1.98,1.98h-22.89v-8.94Z"/>
    </g>
  </g>
</svg>