<?xml version="1.0" encoding="UTF-8"?>
<svg id="Layer_2" xmlns="http://www.w3.org/2000/svg" xmlns:xlink="http://www.w3.org/1999/xlink" viewBox="0 0 49.74 61.02">
  <defs>
    <style>
      .cls-1 {
        fill: url(#linear-gradient);
      }
    </style>
    <linearGradient id="linear-gradient" x1="24.87" y1="0" x2="24.87" y2="61.02" gradientUnits="userSpaceOnUse">
      <stop offset="0" stop-color="#ece7d9"/>
      <stop offset=".16" stop-color="#e4e1d5"/>
      <stop offset=".4" stop-color="#d1d1cd"/>
      <stop offset=".68" stop-color="#b0b7bf"/>
      <stop offset=".99" stop-color="#8493ac"/>
      <stop offset="1" stop-color="#8392ac"/>
    </linearGradient>
  </defs>
  <g id="Layer_8">
    <path class="cls-1" d="M4.45,32.81c0-17.04,15.96-19.66,15.96-19.66,0,0,1.02.13,1.02-.57s-5.55.45-5.55-5.94C15.87.78,23.64.08,24.93,0c.12,0,.23,0,.36,0,1.23.08,8.4.79,8.4,6.57,0,6.32-5.81,5.94-5.81,5.94,0,0,.83.64,1.28.64s3.89.89,5.81,2.81c0,0,.32-.06.38,1.98.05,1.74-9.47,9.5-12.3,11.76-.72.57-1.16,1.45-1.08,2.37.05.54.26,1.1.81,1.51,1.47,1.09,3.77.64,4.02.26.21-.32,8.16-8.2,10.77-10.78.8-.79,1.86-1.28,2.98-1.29.01,0,.03,0,.04,0,1.47,0,4.6,4.79,4.6,7.79s2.96,18.7-20.06,18.7c0,0-20.66,1.6-20.66-15.45ZM47.77,52.08H1.98c-1.09,0-1.98.89-1.98,1.98v4.98c0,1.09.89,1.98,1.98,1.98h45.79c1.09,0,1.98-.89,1.98-1.98v-4.98c0-1.09-.89-1.98-1.98-1.98Z"/>
  </g>
</svg>