<?xml version="1.0" encoding="UTF-8"?>
<svg id="Layer_2" xmlns="http://www.w3.org/2000/svg" xmlns:xlink="http://www.w3.org/1999/xlink" viewBox="0 0 56.38 60.98">
  <defs>
    <style>
      .cls-1 {
        fill: url(#linear-gradient);
      }
    </style>
    <linearGradient id="linear-gradient" x1="28.19" y1="0" x2="28.19" y2="60.98" gradientUnits="userSpaceOnUse">
      <stop offset="0" stop-color="#ece7d9"/>
      <stop offset=".16" stop-color="#e4e1d5"/>
      <stop offset=".4" stop-color="#d1d1cd"/>
      <stop offset=".68" stop-color="#b0b7bf"/>
      <stop offset=".99" stop-color="#8493ac"/>
      <stop offset="1" stop-color="#8392ac"/>
    </linearGradient>
  </defs>
  <g id="Layer_8">
    <path class="cls-1" d="M15.06,13.36c0-3.15,1.02-4.43,2.72-4.43s2.3,1.02,2.3,1.02c1.62,1.53,2.55,1.02,2.55,1.02,0,0,3.41-.68,3.41-2.89s-2.14-2.81-2.14-5.02,1.11-3.06,1.11-3.06h6.34s1.11.85,1.11,3.06-2.14,2.81-2.14,5.02,3.41,2.89,3.41,2.89c0,0,.94.51,2.55-1.02,0,0,.6-1.02,2.3-1.02s2.72,1.28,2.72,4.43-1.53,3.66-2.81,3.66-2.21-.85-2.47-1.11-.22-.68-2.37-.68-3.42-.25-3.42,2.72,2.21,2.55,2.21,5.53-4.28,2.38-4.28,2.38c0,0-4.28.6-4.28-2.38s2.21-2.55,2.21-5.53-1.28-2.72-3.42-2.72-2.11.43-2.37.68-1.19,1.11-2.47,1.11-2.81-.51-2.81-3.66ZM11.15,46.89h34.09s11.15-7.23,11.15-18.47c0,0-.77-8.51-9.36-8.51s-10.55,6.81-10.55,8.6.91,5.28-1.71,5.28-2.46-1.53-2.46-3.74c0,0,.26-1.11-1.53-1.11l-2.57.09-2.57-.09c-1.79,0-1.53,1.11-1.53,1.11,0,2.21.17,3.74-2.46,3.74s-1.71-3.49-1.71-5.28-1.96-8.6-10.55-8.6S0,28.43,0,28.43c0,11.23,11.15,18.47,11.15,18.47ZM51.09,52.04H5.3c-1.09,0-1.98.89-1.98,1.98v4.98c0,1.09.89,1.98,1.98,1.98h45.79c1.09,0,1.98-.89,1.98-1.98v-4.98c0-1.09-.89-1.98-1.98-1.98Z"/>
  </g>
</svg>