<?xml version="1.0" encoding="UTF-8"?>
<svg id="Layer_2" xmlns="http://www.w3.org/2000/svg" viewBox="0 0 56.38 60.98">
  <defs>
    <style>
      .cls-1 {
        fill: #231f20;
      }
    </style>
  </defs>
  <g id="Layer_2-2" data-name="Layer_2">
    <g id="king_icon">
      <path class="cls-1" d="M28.19,25.87V0h-3.17s-1.11.85-1.11,3.06,2.14,2.81,2.14,5.02-3.41,2.89-3.41,2.89c0,0-.94.51-2.55-1.02,0,0-.6-1.02-2.3-1.02s-2.72,1.28-2.72,4.43,1.53,3.66,2.81,3.66,2.21-.85,2.47-1.11.22-.68,2.37-.68,3.42-.25,3.42,2.72-2.21,2.55-2.21,5.53,4.28,2.38,4.28,2.38Z"/>
      <path class="cls-1" d="M28.19,46.89H11.15S0,39.66,0,28.43c0,0,.77-8.51,9.36-8.51s10.55,6.81,10.55,8.6-.91,5.28,1.71,5.28,2.46-1.53,2.46-3.74c0,0-.26-1.11,1.53-1.11l2.57.09v17.87Z"/>
      <path class="cls-1" d="M28.19,25.87V0h3.17s1.11.85,1.11,3.06-2.14,2.81-2.14,5.02,3.41,2.89,3.41,2.89c0,0,.94.51,2.55-1.02,0,0,.6-1.02,2.3-1.02s2.72,1.28,2.72,4.43-1.53,3.66-2.81,3.66-2.21-.85-2.47-1.11-.22-.68-2.37-.68-3.42-.25-3.42,2.72,2.21,2.55,2.21,5.53-4.28,2.38-4.28,2.38Z"/>
      <path class="cls-1" d="M28.19,46.89h17.04s11.15-7.23,11.15-18.47c0,0-.77-8.51-9.36-8.51s-10.55,6.81-10.55,8.6.91,5.28-1.71,5.28-2.46-1.53-2.46-3.74c0,0,.26-1.11-1.53-1.11l-2.57.09v17.87Z"/>
      <path class="cls-1" d="M28.19,52.04H5.3c-1.09,0-1.98.89-1.98,1.98v4.98c0,1.09.89,1.98,1.98,1.98h22.89v-8.94Z"/>
      <path class="cls-1" d="M28.19,52.04h22.89c1.09,0,1.98.89,1.98,1.98v4.98c0,1.09-.89,1.98-1.98,1.98h-22.89v-8.94Z"/>
    </g>
  </g>
</svg>