<?xml version="1.0" encoding="UTF-8"?>
<svg id="Layer_2" xmlns="http://www.w3.org/2000/svg" viewBox="0 0 49.74 58.91">
  <defs>
    <style>
      .cls-1 {
        fill: #231f20;
      }
    </style>
  </defs>
  <g id="Layer_2-2" data-name="Layer_2">
    <g id="horse_icon">
      <path class="cls-1" d="M41.4,44.17H11.6c-2.34,0-4.24-1.9-4.24-4.24,0-2.45,1.23-4.75,3.29-6.09,4.08-2.84,8.16-5.68,12.24-8.52.15-.28.38-.81.33-1.46-.09-1.33-1.27-2.49-2.4-2.58-.35-.03-.63.05-2.39,1.06-1.48.85-2.21,1.31-2.55,1.53-1.57,1.04-3.57,2.37-5.23,2.94-1.23.42-3.32.77-6.41-.29l-1.09-1.08c-.39-.4-.93-1.07-1.18-2.01-.71-2.66,1.52-4.91,1.66-5.04,3.56-4.62,7.13-9.23,10.69-13.85C16.87,1.65,20.55,0,24.4,0h3.25c3,0,5.91,1.03,8.23,2.93,1.84,1.51,3.86,3.58,5.16,6.12.71,1.4,1.04,2.96,1,4.53l-.64,30.6Z"/>
      <path class="cls-1" d="M24.87,49.98H1.98c-1.09,0-1.98.89-1.98,1.98v4.98c0,1.09.89,1.98,1.98,1.98h22.89v-8.94Z"/>
      <path class="cls-1" d="M24.87,49.98h22.89c1.09,0,1.98.89,1.98,1.98v4.98c0,1.09-.89,1.98-1.98,1.98h-22.89v-8.94Z"/>
    </g>
  </g>
</svg>