<?xml version="1.0" encoding="UTF-8"?>
<svg id="Layer_2" xmlns="http://www.w3.org/2000/svg" xmlns:xlink="http://www.w3.org/1999/xlink" viewBox="0 0 49.74 56.95">
  <defs>
    <style>
      .cls-1 {
        fill: url(#linear-gradient);
      }
    </style>
    <linearGradient id="linear-gradient" x1="24.87" y1="0" x2="24.87" y2="56.95" gradientUnits="userSpaceOnUse">
      <stop offset="0" stop-color="#ece7d9"/>
      <stop offset=".16" stop-color="#e4e1d5"/>
      <stop offset=".4" stop-color="#d1d1cd"/>
      <stop offset=".68" stop-color="#b0b7bf"/>
      <stop offset=".99" stop-color="#8493ac"/>
      <stop offset="1" stop-color="#8392ac"/>
    </linearGradient>
  </defs>
  <g id="Layer_8">
    <path class="cls-1" d="M8.62,26.44v-2.65c0-.59.45-1.08,1.04-1.12,3.45-.24,14.19-1.09,12.04-2.49-2.55-1.66-8.04-1.79-8.17-9.83C13.4,2.32,21.28-.24,24.87.02c3.6-.26,11.47,2.3,11.34,10.34-.13,8.04-5.62,8.17-8.17,9.83-2.15,1.4,8.59,2.25,12.04,2.49.59.04,1.04.53,1.04,1.12v2.65c0,.57-.42,1.05-.98,1.11-1.14.13-3.24.34-6.1.42-4.47.13-3.96,1.53-3.96,1.53l8.38,10.48c.74.92.08,2.29-1.1,2.29H12.38c-1.18,0-1.84-1.37-1.1-2.29l8.38-10.48s.51-1.4-3.96-1.53c-2.86-.08-4.96-.28-6.1-.42-.56-.07-.98-.55-.98-1.11ZM47.77,48.02H1.98c-1.09,0-1.98.89-1.98,1.98v4.98c0,1.09.89,1.98,1.98,1.98h45.79c1.09,0,1.98-.89,1.98-1.98v-4.98c0-1.09-.89-1.98-1.98-1.98Z"/>
  </g>
</svg>