<?xml version="1.0" encoding="UTF-8"?>
<svg id="Layer_2" xmlns="http://www.w3.org/2000/svg" viewBox="0 0 49.74 56.95">
  <defs>
    <style>
      .cls-1 {
        fill: #231f20;
      }
    </style>
  </defs>
  <g id="Layer_2-2" data-name="Layer_2">
    <g id="pawn_icon">
      <path class="cls-1" d="M24.87,48.02H1.98c-1.09,0-1.98.89-1.98,1.98v4.98c0,1.09.89,1.98,1.98,1.98h22.89v-8.94Z"/>
      <path class="cls-1" d="M24.87.02v42.26h-12.49c-1.18,0-1.84-1.37-1.1-2.29l8.38-10.48s.51-1.4-3.96-1.53c-2.86-.08-4.96-.28-6.1-.42-.56-.07-.98-.55-.98-1.11v-2.65c0-.59.45-1.08,1.04-1.12,3.45-.24,14.19-1.09,12.04-2.49-2.55-1.66-8.04-1.79-8.17-9.83S21.28-.24,24.87.02Z"/>
      <path class="cls-1" d="M24.87,48.02h22.89c1.09,0,1.98.89,1.98,1.98v4.98c0,1.09-.89,1.98-1.98,1.98h-22.89v-8.94Z"/>
      <path class="cls-1" d="M24.87.02v42.26s12.49,0,12.49,0c1.18,0,1.84-1.37,1.1-2.29l-8.38-10.48s-.51-1.4,3.96-1.53c2.86-.08,4.96-.28,6.1-.42.56-.07.98-.55.98-1.11v-2.65c0-.59-.45-1.08-1.04-1.12-3.45-.24-14.19-1.09-12.04-2.49,2.55-1.66,8.04-1.79,8.17-9.83S28.47-.24,24.87.02Z"/>
    </g>
  </g>
</svg>