<?xml version="1.0" encoding="UTF-8"?>
<svg id="Layer_2" xmlns="http://www.w3.org/2000/svg" viewBox="0 0 66.98 59.43">
  <defs>
    <style>
      .cls-1 {
        fill: #231f20;
      }
    </style>
  </defs>
  <g id="Layer_2-2" data-name="Layer_2">
    <g id="queen_icon">
      <g>
        <path class="cls-1" d="M33.81,44.46v-15.22c0-.12-.08-.23-.19-.27l-.06-.02c-.95-.34-1.68-1.12-1.98-2.09l-2.81-9.35c-.38-1.25-1.69-1.96-2.94-1.58h0c-1.69.51-2.84,2.06-2.84,3.82v7.24c0,1.4-1.02,2.58-2.41,2.78-.95.14-1.89-.28-2.43-1.07l-7.5-11.02c-.11-.16-.29-.25-.49-.25h-.22c-1.84.07-3.3,1.58-3.3,3.42,0,1.02.24,2.03.7,2.94l10.46,20.8c.05.1.15.16.25.16h15.48c.16,0,.28-.13.28-.28Z"/>
        <rect class="cls-1" x="0" y="3.38" width="11.74" height="11.74" rx="5.87" ry="5.87"/>
        <rect class="cls-1" x="18.88" y="0" width="11.74" height="11.74" rx="5.87" ry="5.87"/>
      </g>
      <g>
        <path class="cls-1" d="M33.17,44.46v-15.22c0-.12.08-.23.19-.27l.06-.02c.95-.34,1.68-1.12,1.98-2.09l2.81-9.35c.38-1.25,1.69-1.96,2.94-1.58h0c1.69.51,2.84,2.06,2.84,3.82v7.24c0,1.4,1.02,2.58,2.41,2.78.95.14,1.89-.28,2.43-1.07l7.5-11.02c.11-.16.29-.25.49-.25h.22c1.84.07,3.3,1.58,3.3,3.42,0,1.02-.24,2.03-.7,2.94l-10.46,20.8c-.05.1-.15.16-.25.16h-15.48c-.16,0-.28-.13-.28-.28Z"/>
        <rect class="cls-1" x="55.23" y="3.38" width="11.74" height="11.74" rx="5.87" ry="5.87"/>
        <rect class="cls-1" x="36.35" y="0" width="11.74" height="11.74" rx="5.87" ry="5.87"/>
      </g>
      <g>
        <path class="cls-1" d="M33.49,50.49H10.6c-1.09,0-1.98.89-1.98,1.98v4.98c0,1.09.89,1.98,1.98,1.98h22.89v-8.94Z"/>
        <path class="cls-1" d="M33.49,50.49h22.89c1.09,0,1.98.89,1.98,1.98v4.98c0,1.09-.89,1.98-1.98,1.98h-22.89v-8.94Z"/>
      </g>
    </g>
  </g>
</svg>