<?xml version="1.0" encoding="UTF-8"?>
<svg id="Layer_2" xmlns="http://www.w3.org/2000/svg" xmlns:xlink="http://www.w3.org/1999/xlink" viewBox="0 0 66.98 59.43">
  <defs>
    <style>
      .cls-1 {
        fill: url(#linear-gradient);
      }
    </style>
    <linearGradient id="linear-gradient" x1="33.49" y1="0" x2="33.49" y2="59.43" gradientUnits="userSpaceOnUse">
      <stop offset="0" stop-color="#ece7d9"/>
      <stop offset=".16" stop-color="#e4e1d5"/>
      <stop offset=".4" stop-color="#d1d1cd"/>
      <stop offset=".68" stop-color="#b0b7bf"/>
      <stop offset=".99" stop-color="#8493ac"/>
      <stop offset="1" stop-color="#8392ac"/>
    </linearGradient>
  </defs>
  <g id="Layer_8">
    <path class="cls-1" d="M5.87,15.13c-3.24,0-5.87-2.63-5.87-5.87h0C0,6.01,2.63,3.38,5.87,3.38s5.87,2.63,5.87,5.87h0c0,3.24-2.63,5.87-5.87,5.87ZM24.76,11.74c3.24,0,5.87-2.63,5.87-5.87S28,0,24.76,0s-5.87,2.63-5.87,5.87,2.63,5.87,5.87,5.87ZM57.04,17.44h-.22c-.19-.01-.38.08-.49.24l-7.5,11.02c-.54.79-1.48,1.21-2.43,1.07-1.38-.2-2.41-1.39-2.41-2.78v-7.24c0-1.76-1.16-3.32-2.84-3.82-1.25-.38-2.57.33-2.94,1.58l-2.81,9.35c-.28.95-.99,1.7-1.91,2.05-.92-.36-1.63-1.11-1.91-2.05l-2.81-9.35c-.38-1.25-1.69-1.96-2.94-1.58-1.69.51-2.84,2.06-2.84,3.82v7.24c0,1.4-1.02,2.58-2.41,2.78-.95.14-1.89-.28-2.43-1.07l-7.5-11.02c-.11-.16-.29-.25-.49-.25h-.22c-1.84.07-3.3,1.58-3.3,3.42,0,1.02.24,2.03.7,2.94l10.46,20.8c.05.1.15.16.25.16h30.88c.11,0,.21-.06.25-.16l10.46-20.8c.46-.91.7-1.92.7-2.94,0-1.84-1.46-3.35-3.3-3.41ZM61.11,3.38c-3.24,0-5.87,2.63-5.87,5.87h0c0,3.24,2.63,5.87,5.87,5.87s5.87-2.63,5.87-5.87h0c0-3.24-2.63-5.87-5.87-5.87ZM42.22,11.74c3.24,0,5.87-2.63,5.87-5.87s-2.63-5.87-5.87-5.87-5.87,2.63-5.87,5.87,2.63,5.87,5.87,5.87ZM56.38,50.49H10.6c-1.09,0-1.98.89-1.98,1.98v4.98c0,1.09.89,1.98,1.98,1.98h45.79c1.09,0,1.98-.89,1.98-1.98v-4.98c0-1.09-.89-1.98-1.98-1.98Z"/>
  </g>
</svg>