<?xml version="1.0" encoding="UTF-8"?>
<svg id="Layer_2" xmlns="http://www.w3.org/2000/svg" xmlns:xlink="http://www.w3.org/1999/xlink" viewBox="0 0 49.74 56.68">
  <defs>
    <style>
      .cls-1 {
        fill: url(#linear-gradient);
      }
    </style>
    <linearGradient id="linear-gradient" x1="24.87" y1="0" x2="24.87" y2="56.68" gradientUnits="userSpaceOnUse">
      <stop offset="0" stop-color="#ece7d9"/>
      <stop offset=".16" stop-color="#e4e1d5"/>
      <stop offset=".4" stop-color="#d1d1cd"/>
      <stop offset=".68" stop-color="#b0b7bf"/>
      <stop offset=".99" stop-color="#8493ac"/>
      <stop offset="1" stop-color="#8392ac"/>
    </linearGradient>
  </defs>
  <g id="Layer_8">
    <path class="cls-1" d="M5.74,40.28v-2.68c0-.95.77-1.72,1.72-1.72h1.91c2.43,0,4.4-1.97,4.4-4.4v-4.91c0-1.55-1.26-2.81-2.81-2.81h-2.68c-1.41,0-2.55-1.14-2.55-2.55V2.55c0-1.41,1.14-2.55,2.55-2.55h12.51c.85,0,1.53.69,1.53,1.53v12.96c0,1.8,1.46,3.26,3.26,3.26h.85c1.8,0,3.26-1.46,3.26-3.26V1.53c0-.85.69-1.53,1.53-1.53h12.51c1.41,0,2.55,1.14,2.55,2.55v18.64c0,1.41-1.14,2.55-2.55,2.55h-2.68c-1.55,0-2.81,1.26-2.81,2.81v4.91c0,2.43,1.97,4.4,4.4,4.4h1.91c.95,0,1.72.77,1.72,1.72v2.68c0,.95-.77,1.72-1.72,1.72H7.47c-.95,0-1.72-.77-1.72-1.72ZM47.77,47.74H1.98c-1.09,0-1.98.89-1.98,1.98v4.98c0,1.09.89,1.98,1.98,1.98h45.79c1.09,0,1.98-.89,1.98-1.98v-4.98c0-1.09-.89-1.98-1.98-1.98Z"/>
  </g>
</svg>