<?xml version="1.0" encoding="UTF-8"?>
<svg id="Layer_2" xmlns="http://www.w3.org/2000/svg" viewBox="0 0 49.74 56.68">
  <defs>
    <style>
      .cls-1 {
        fill: #231f20;
      }
    </style>
  </defs>
  <g id="Layer_2-2" data-name="Layer_2">
    <g id="rook_icon">
      <path class="cls-1" d="M27.17,42v-24.26h-1.57c-1.8,0-3.26-1.46-3.26-3.26V1.53C22.34.69,21.65,0,20.81,0h-12.51C6.89,0,5.74,1.14,5.74,2.55v18.64c0,1.41,1.14,2.55,2.55,2.55h2.68c1.55,0,2.81,1.26,2.81,2.81v4.91c0,2.43-1.97,4.4-4.4,4.4h-1.91c-.95,0-1.72.77-1.72,1.72v2.68c0,.95.77,1.72,1.72,1.72h19.7Z"/>
      <path class="cls-1" d="M24.87,47.74H1.98c-1.09,0-1.98.89-1.98,1.98v4.98c0,1.09.89,1.98,1.98,1.98h22.89v-8.94Z"/>
      <path class="cls-1" d="M24.87,42v-24.26h1.57c1.8,0,3.26-1.46,3.26-3.26V1.53c0-.85.69-1.53,1.53-1.53h12.51c1.41,0,2.55,1.14,2.55,2.55v18.64c0,1.41-1.14,2.55-2.55,2.55h-2.68c-1.55,0-2.81,1.26-2.81,2.81v4.91c0,2.43,1.97,4.4,4.4,4.4h1.91c.95,0,1.72.77,1.72,1.72v2.68c0,.95-.77,1.72-1.72,1.72h-19.7Z"/>
      <path class="cls-1" d="M24.87,47.74h22.89c1.09,0,1.98.89,1.98,1.98v4.98c0,1.09-.89,1.98-1.98,1.98h-22.89v-8.94Z"/>
    </g>
  </g>
</svg>